<svg width="1024" height="1024" viewBox="0 0 1024 1024" fill="none" xmlns="http://www.w3.org/2000/svg">
<path d="M512 992C777.097 992 992 777.097 992 512C992 246.903 777.097 32 512 32C246.903 32 32 246.903 32 512C32 777.097 246.903 992 512 992Z" fill="#100E17"/>
<path d="M513.417 95.4576L811.39 807.051L668.538 767.328L627.604 632.764L513.417 788.805L397.077 632.764L353.988 767.328L221.288 807.051L513.417 95.4576ZM431.548 520.627L513.417 198.852L590.978 520.627L513.417 788.805L431.548 520.627Z" fill="white"/>
<path d="M513.417 198.852L431.548 520.627L513.417 661.083L590.978 520.627L513.417 198.852Z" fill="#E1E1E1"/>
</svg>
